<svg width="13" height="21" viewBox="0 0 13 21" fill="none" xmlns="http://www.w3.org/2000/svg">
<path d="M0.80127 10.1123C0.8125 9.73047 0.947266 9.40479 1.25049 9.11279L10.0103 0.543945C10.2461 0.296875 10.5605 0.17334 10.9199 0.17334C11.6499 0.17334 12.2227 0.734863 12.2227 1.46484C12.2227 1.82422 12.0767 2.1499 11.8296 2.4082L3.93457 10.1123L11.8296 17.8164C12.0767 18.0635 12.2227 18.3892 12.2227 18.7485C12.2227 19.4897 11.6499 20.0513 10.9199 20.0513C10.5605 20.0513 10.2461 19.9277 10.0103 19.6807L1.25049 11.1118C0.947266 10.8198 0.80127 10.4941 0.80127 10.1123Z" fill="#007AFF"/>
</svg>
